<?xml version="1.0" ?>

<!DOCTYPE svg  PUBLIC '-//W3C//DTD SVG 1.1//EN'  'http://www.w3.org/Graphics/SVG/1.1/DTD/svg11.dtd'>

<!-- Uploaded to: SVG Repo, www.svgrepo.com, Generator: SVG Repo Mixer Tools -->
<svg fill="#ffffff" width="800px" height="800px" viewBox="0 0 512 512" enable-background="new 0 0 512 512" id="sailboat" version="1.1" xml:space="preserve" xmlns="http://www.w3.org/2000/svg" xmlns:xlink="http://www.w3.org/1999/xlink">

<g>

<path d="M426.374,413.192c-16.443,0-24.942,6.353-32.44,11.959c-6.654,4.975-12.4,9.271-24.355,9.271s-17.703-4.297-24.356-9.271   c-7.499-5.606-15.997-11.959-32.441-11.959c-16.441,0-24.938,6.353-32.436,11.959c-6.653,4.975-12.399,9.271-24.353,9.271   s-17.7-4.297-24.354-9.271c-7.498-5.606-15.996-11.959-32.438-11.959s-24.938,6.353-32.436,11.959   c-6.654,4.975-12.399,9.271-24.353,9.271c-11.952,0-17.698-4.297-24.352-9.271c-7.498-5.607-15.994-11.96-32.436-11.96   c-3.729,0-6.75,3.021-6.75,6.75s3.021,6.75,6.75,6.75c11.952,0,17.697,4.296,24.352,9.271c7.497,5.606,15.994,11.96,32.436,11.96   c16.442,0,24.939-6.354,32.437-11.96c6.653-4.975,12.399-9.271,24.352-9.271s17.699,4.296,24.353,9.271   c7.498,5.606,15.996,11.96,32.438,11.96s24.939-6.354,32.437-11.96c6.654-4.975,12.399-9.271,24.352-9.271   c11.955,0,17.703,4.296,24.356,9.271c7.499,5.605,15.997,11.959,32.441,11.959c16.442,0,24.94-6.354,32.439-11.959   c6.654-4.976,12.401-9.271,24.356-9.271c3.729,0,6.75-3.021,6.75-6.75S430.103,413.192,426.374,413.192z"/>

<path d="M404.654,463.084c-14.479,0-21.979,5.141-28.594,9.675c-5.958,4.084-10.664,7.31-20.962,7.31s-15.005-3.226-20.962-7.31   c-6.615-4.534-14.114-9.675-28.594-9.675s-21.978,5.141-28.592,9.676c-5.957,4.083-10.661,7.309-20.958,7.309   c-10.296,0-15.001-3.226-20.959-7.31c-6.615-4.534-14.113-9.675-28.593-9.675c-14.479,0-21.976,5.141-28.59,9.675   c-5.956,4.084-10.661,7.31-20.958,7.31c-10.296,0-15.001-3.226-20.958-7.31c-6.614-4.534-14.111-9.675-28.59-9.675   c-3.729,0-6.75,3.021-6.75,6.75s3.021,6.75,6.75,6.75c10.295,0,15,3.227,20.957,7.31c6.614,4.535,14.111,9.675,28.591,9.675   s21.978-5.14,28.592-9.675c5.956-4.083,10.661-7.31,20.956-7.31c10.297,0,15.002,3.227,20.959,7.31   c6.616,4.535,14.113,9.675,28.593,9.675s21.978-5.14,28.592-9.675c5.958-4.083,10.663-7.31,20.958-7.31   c10.297,0,15.003,3.227,20.96,7.31c6.616,4.535,14.114,9.675,28.596,9.675c14.48,0,21.979-5.14,28.595-9.675   c5.958-4.083,10.663-7.31,20.961-7.31c3.729,0,6.75-3.021,6.75-6.75S408.383,463.084,404.654,463.084z"/>

<path d="M131.367,390.121c1.207,2.083,3.432,3.364,5.84,3.364h235.122c2.407,0,4.633-1.281,5.839-3.364l42.464-73.244   c1.211-2.089,1.214-4.665,0.009-6.756s-3.435-3.38-5.848-3.38H263.982v-14.192h123.336c3.615,0,6.589-2.849,6.743-6.462   c0.073-1.724,1.624-42.702-13.866-86.178c-0.644-1.804-1.307-3.584-1.989-5.342c-0.232-0.599-0.479-1.179-0.716-1.771   c-0.459-1.148-0.915-2.301-1.391-3.43c-0.298-0.706-0.611-1.393-0.916-2.091c-0.434-0.994-0.861-1.993-1.309-2.972   c-0.339-0.741-0.693-1.464-1.041-2.195c-0.431-0.91-0.856-1.827-1.299-2.724c-0.375-0.758-0.766-1.497-1.148-2.245   c-0.434-0.846-0.862-1.697-1.307-2.529c-0.407-0.765-0.83-1.51-1.247-2.263c-0.439-0.793-0.873-1.592-1.322-2.372   c-0.438-0.76-0.889-1.502-1.335-2.25c-0.448-0.749-0.892-1.504-1.349-2.241c-0.467-0.753-0.946-1.489-1.423-2.229   c-0.455-0.708-0.908-1.421-1.372-2.117c-0.496-0.744-1.005-1.472-1.512-2.203c-0.463-0.669-0.923-1.342-1.396-2   c-0.525-0.733-1.064-1.452-1.602-2.173c-0.469-0.63-0.936-1.262-1.413-1.882c-0.557-0.723-1.125-1.43-1.693-2.139   c-0.476-0.594-0.95-1.19-1.434-1.774c-0.586-0.707-1.183-1.399-1.779-2.092c-0.483-0.562-0.966-1.124-1.457-1.675   c-0.615-0.691-1.241-1.369-1.867-2.046c-0.489-0.526-0.978-1.055-1.473-1.572c-0.648-0.677-1.306-1.341-1.965-2.002   c-0.492-0.493-0.984-0.985-1.483-1.47c-0.679-0.659-1.366-1.307-2.058-1.949c-0.496-0.462-0.993-0.923-1.495-1.376   c-0.711-0.642-1.431-1.271-2.154-1.896c-0.499-0.431-0.999-0.859-1.504-1.281c-0.743-0.622-1.494-1.233-2.25-1.838   c-0.501-0.4-1.004-0.798-1.51-1.19c-0.778-0.603-1.563-1.196-2.354-1.78c-0.5-0.369-1.002-0.735-1.507-1.098   c-0.813-0.583-1.634-1.157-2.461-1.721c-0.497-0.34-0.996-0.675-1.498-1.006c-0.852-0.564-1.709-1.119-2.574-1.662   c-0.492-0.31-0.987-0.614-1.484-0.917c-0.889-0.542-1.784-1.075-2.688-1.597c-0.487-0.281-0.979-0.557-1.472-0.832   c-0.928-0.52-1.859-1.03-2.801-1.527c-0.482-0.254-0.968-0.502-1.453-0.751c-0.968-0.495-1.94-0.983-2.923-1.457   c-0.473-0.227-0.948-0.447-1.424-0.669c-1.011-0.472-2.025-0.937-3.052-1.385c-0.459-0.199-0.922-0.393-1.384-0.588   c-1.058-0.448-2.12-0.889-3.194-1.313c-0.439-0.173-0.885-0.338-1.327-0.508c-1.108-0.423-2.221-0.839-3.345-1.235   c-0.42-0.148-0.846-0.288-1.268-0.433c-1.161-0.397-2.326-0.788-3.505-1.157c-0.39-0.122-0.785-0.236-1.177-0.355   c-1.225-0.372-2.453-0.737-3.696-1.08c-0.348-0.096-0.701-0.184-1.05-0.276c-1.296-0.348-2.597-0.686-3.912-1   c-0.302-0.072-0.607-0.137-0.91-0.207c-1.374-0.319-2.754-0.629-4.15-0.914c-0.233-0.047-0.47-0.089-0.704-0.135   c-1.473-0.294-2.953-0.574-4.449-0.829c-0.138-0.023-0.278-0.042-0.416-0.065c-1.597-0.267-3.205-0.517-4.829-0.739V84.079V73.087   l45.634-17.293c2.52-0.954,4.229-3.314,4.353-6.005c0.122-2.689-1.366-5.195-3.787-6.376l-49.875-24.3   c-2.092-1.019-4.563-0.89-6.534,0.346c-1.975,1.232-3.173,3.396-3.173,5.723v12.336c-0.065,0.38-0.117,0.766-0.117,1.164v39.931   c0,0,0,0-0.001,0c-1.22,0.278-2.423,0.585-3.629,0.887c-0.6,0.15-1.207,0.287-1.804,0.443c-1.089,0.285-2.162,0.596-3.239,0.9   c-0.698,0.196-1.403,0.383-2.097,0.588c-1.02,0.302-2.024,0.628-3.033,0.948c-0.735,0.232-1.477,0.455-2.205,0.697   c-0.973,0.323-1.93,0.669-2.892,1.008c-0.749,0.265-1.505,0.521-2.248,0.795c-0.938,0.347-1.862,0.715-2.79,1.077   c-0.75,0.293-1.504,0.578-2.246,0.881c-0.908,0.371-1.803,0.761-2.7,1.146c-0.747,0.321-1.499,0.637-2.239,0.969   c-0.879,0.394-1.746,0.807-2.616,1.216c-0.74,0.349-1.484,0.692-2.218,1.052c-0.854,0.418-1.697,0.854-2.541,1.287   c-0.733,0.376-1.469,0.749-2.194,1.137c-0.826,0.44-1.643,0.897-2.459,1.353c-0.727,0.405-1.454,0.808-2.173,1.225   c-0.802,0.464-1.594,0.942-2.385,1.42c-0.717,0.433-1.434,0.864-2.142,1.309c-0.778,0.487-1.548,0.988-2.316,1.49   c-0.704,0.459-1.408,0.919-2.104,1.39c-0.755,0.512-1.503,1.034-2.249,1.559c-0.691,0.486-1.382,0.975-2.065,1.474   c-0.733,0.534-1.46,1.079-2.184,1.627c-0.679,0.514-1.355,1.03-2.025,1.556c-0.711,0.557-1.415,1.122-2.116,1.692   c-0.665,0.541-1.328,1.087-1.984,1.64c-0.689,0.579-1.372,1.166-2.052,1.759c-0.651,0.568-1.299,1.143-1.941,1.723   c-0.666,0.602-1.327,1.209-1.984,1.823c-0.638,0.596-1.271,1.199-1.899,1.808c-0.645,0.623-1.284,1.251-1.919,1.886   c-0.623,0.624-1.241,1.256-1.854,1.893c-0.622,0.644-1.241,1.291-1.854,1.947c-0.608,0.652-1.211,1.314-1.812,1.979   c-0.599,0.665-1.196,1.332-1.786,2.008c-0.594,0.681-1.181,1.372-1.765,2.065c-0.577,0.685-1.153,1.37-1.721,2.065   c-0.579,0.71-1.149,1.431-1.719,2.153c-0.555,0.704-1.109,1.408-1.655,2.124c-0.563,0.739-1.118,1.491-1.673,2.243   c-0.531,0.722-1.063,1.441-1.586,2.174c-0.55,0.772-1.089,1.558-1.629,2.342c-0.508,0.737-1.017,1.472-1.516,2.22   c-0.535,0.804-1.058,1.621-1.582,2.437c-0.485,0.755-0.974,1.506-1.45,2.271c-0.519,0.835-1.024,1.685-1.533,2.531   c-0.462,0.77-0.927,1.534-1.38,2.314c-0.505,0.87-0.997,1.758-1.491,2.642c-0.437,0.78-0.879,1.556-1.307,2.347   c-0.49,0.906-0.966,1.83-1.445,2.75c-0.412,0.792-0.831,1.577-1.234,2.379c-0.48,0.952-0.944,1.924-1.412,2.891   c-0.383,0.791-0.772,1.573-1.147,2.374c-0.473,1.008-0.927,2.036-1.387,3.059c-0.352,0.783-0.712,1.557-1.056,2.349   c-0.471,1.084-0.923,2.189-1.38,3.289c-0.313,0.753-0.635,1.494-0.94,2.254c-0.501,1.244-0.98,2.511-1.464,3.774   c-0.243,0.637-0.496,1.263-0.735,1.905c-0.713,1.917-1.405,3.854-2.077,5.817c-16.266,47.511-14.81,90.888-14.739,92.711   c0.138,3.625,3.117,6.491,6.744,6.491h128.276v14.569H94.743c-2.413,0-4.643,1.289-5.848,3.38s-1.202,4.667,0.009,6.756   L131.367,390.121z M265.276,115.165c49.363,7.743,83.687,37.625,102.073,88.918c11.219,31.289,13.027,61.98,13.246,74.966H265.276   V115.165z M264.1,35.979l26.122,12.728L264.1,58.604V35.979z M128.94,278.672c0.237-13.576,2.14-46.592,14.032-81.329   c19.465-56.854,55.614-92.097,107.51-104.864v186.193H128.94z M403.076,320.241l-34.636,59.744H141.096l-34.636-59.744H403.076z"/>

<circle cx="168.175" cy="350.542" r="18.9"/>

<circle cx="347.06" cy="350.542" r="18.9"/>

<circle cx="257.617" cy="350.542" r="18.9"/>

<path d="M108.559,206.346c0.527,0.126,1.054,0.186,1.571,0.186c3.054,0,5.822-2.085,6.561-5.185   c0.676-2.835,1.412-5.684,2.188-8.47c0.999-3.591-1.104-7.313-4.695-8.312c-3.583-0.992-7.312,1.103-8.313,4.694   c-0.818,2.945-1.596,5.958-2.311,8.954C102.694,201.841,104.934,205.48,108.559,206.346z"/>

<path d="M116.844,175.595c0.876,0.381,1.79,0.562,2.688,0.562c2.605,0,5.088-1.516,6.194-4.058   c1.741-4.003,5.76-12.98,7.225-15.865c1.349-2.651,2.763-5.263,4.201-7.763c4.15-7.21,8.788-13.993,13.785-20.157   c2.058-2.538,4.219-5.021,6.424-7.381c2.775-2.97,5.68-5.805,8.632-8.423c2.061-1.828,4.181-3.583,6.302-5.217   c1.884-1.452,3.813-2.841,5.737-4.13c2.376-1.593,4.728-3.021,6.992-4.249c3.279-1.776,4.497-5.872,2.722-9.149   c-1.774-3.277-5.872-4.497-9.149-2.722c-2.637,1.428-5.355,3.079-8.08,4.904c-2.17,1.454-4.346,3.021-6.462,4.653   c-2.365,1.82-4.728,3.776-7.021,5.811c-3.266,2.898-6.473,6.027-9.535,9.304c-2.42,2.589-4.791,5.313-7.048,8.098   c-5.445,6.72-10.492,14.096-14.997,21.923c-1.556,2.701-3.081,5.52-4.535,8.381c-1.821,3.583-6.25,13.561-7.571,16.596   C111.859,170.129,113.425,174.106,116.844,175.595z"/>

<path d="M395.4,206.575c0.355,1.203,0.612,2.032,0.824,2.72c0.457,1.48,0.667,2.155,1.315,4.883   c0.74,3.101,3.507,5.187,6.562,5.187c0.518,0,1.045-0.06,1.57-0.185c3.626-0.864,5.865-4.505,5.002-8.132   c-0.721-3.026-1.013-3.998-1.552-5.742c-0.2-0.645-0.441-1.424-0.775-2.554c-1.056-3.575-4.811-5.623-8.385-4.562   C396.387,199.246,394.345,202.999,395.4,206.575z"/>

<path d="M325.708,113.752c0.021,0.009,2.128,0.847,5.592,2.798c2.28,1.285,4.635,2.763,6.996,4.389   c2.952,2.035,5.895,4.29,8.746,6.699c2.835,2.397,5.638,4.996,8.328,7.722c2.105,2.134,4.175,4.379,6.155,6.674   c1.977,2.291,3.917,4.694,5.77,7.142c2.399,3.172,4.723,6.514,6.905,9.932c1.935,3.026,3.809,6.191,5.57,9.404   c1.805,3.291,6.487,12.689,8.182,16.338c1.143,2.46,3.581,3.907,6.126,3.907c0.952,0,1.92-0.202,2.84-0.629   c3.38-1.57,4.85-5.585,3.279-8.966c-1.811-3.897-6.645-13.594-8.59-17.141c-1.906-3.477-3.935-6.901-6.03-10.182   c-2.374-3.716-4.902-7.354-7.517-10.809c-2.025-2.677-4.149-5.305-6.313-7.814c-2.176-2.521-4.452-4.991-6.769-7.339   c-2.976-3.014-6.079-5.891-9.222-8.548c-3.188-2.694-6.484-5.22-9.801-7.508c-2.697-1.855-5.398-3.55-8.029-5.031   c-4.333-2.443-7.045-3.512-7.34-3.625c-3.472-1.336-7.356,0.387-8.707,3.852C320.531,108.481,322.249,112.39,325.708,113.752z"/>

</g>

</svg>