<?xml version="1.0" encoding="iso-8859-1"?>
<!-- Uploaded to: SVG Repo, www.svgrepo.com, Generator: SVG Repo Mixer Tools -->
<!DOCTYPE svg PUBLIC "-//W3C//DTD SVG 1.1//EN" "http://www.w3.org/Graphics/SVG/1.1/DTD/svg11.dtd">
<svg fill="#ffffff" height="800px" width="800px" version="1.1" id="Capa_1" xmlns="http://www.w3.org/2000/svg" xmlns:xlink="http://www.w3.org/1999/xlink" 
	 viewBox="0 0 338.775 338.775" xml:space="preserve">
<path d="M191.336,21.947c-41.434,0-78.932,17.181-105.742,44.79c-0.344-0.045-0.696-0.068-1.052-0.068H16V12.718
	c0-4.418-3.582-8-8-8s-8,3.582-8,8v313.34c0,4.418,3.582,8,8,8s8-3.582,8-8v-53.951h68.542c0.356,0,0.708-0.023,1.052-0.068
	c26.811,27.609,64.309,44.79,105.742,44.79c81.298,0,147.439-66.142,147.439-147.44S272.634,21.947,191.336,21.947z M16,256.106
	V82.669h56.159C54.389,107.022,43.895,137,43.895,169.388s10.494,62.365,28.265,86.719H16z M191.336,300.828
	c-72.477,0-131.441-58.964-131.441-131.44s58.964-131.44,131.441-131.44c72.476,0,131.439,58.964,131.439,131.44
	S263.812,300.828,191.336,300.828z M261.191,117.986h-4.009v-4.568c0-4.418-3.582-8-8-8h-36.716c-4.418,0-8,3.582-8,8s3.582,8,8,8
	h28.716v37.956c0,20.93-17.027,37.957-37.956,37.957h-25.403c-20.929,0-37.956-17.027-37.956-37.957v-37.956h24.497
	c-3.742,12.088-2.164,26.157,7.45,35.126c3.231,3.014,8.293,2.838,11.307-0.393c3.014-3.23,2.838-8.293-0.393-11.307
	c-5.959-5.56-5.516-18.401,0.914-26.425c10.183-12.708,12.313-35.469-0.913-47.809c-3.231-3.017-8.293-2.84-11.307,0.391
	c-3.014,3.23-2.839,8.293,0.391,11.307c5.21,4.862,5.522,15.648,1.163,23.401c-0.684-0.19-1.404-0.292-2.148-0.292h-38.96
	c-4.418,0-8,3.582-8,8v45.956c0,29.752,24.205,53.957,53.956,53.957h25.403c22.521,0,41.863-13.869,49.935-33.515h8.03
	c14.597,0,26.472-11.876,26.472-26.473v-8.885C287.663,129.862,275.788,117.986,261.191,117.986z M271.663,153.344
	c0,5.774-4.698,10.473-10.472,10.473h-4.009v-29.83h4.009c5.774,0,10.472,4.698,10.472,10.473V153.344z M266.064,239.618
	c0,4.418-3.582,8-8,8H122.987c-4.418,0-8-3.582-8-8s3.582-8,8-8h135.077C262.483,231.618,266.064,235.2,266.064,239.618z"/>
</svg>